Coordinates
version=1
nRows=19
nColumns=63
inDegrees=yes

Units are S.I. units (second, meters, Newtons, ...)
If the header above contains a line with 'inDegrees', this indicates whether rotational values are in degrees (yes) or radians (no).

endheader
time	pelvis_tilt	pelvis_list	pelvis_rotation	pelvis_tx	pelvis_ty	pelvis_tz	hip_flexion_r	hip_adduction_r	hip_rotation_r	knee_angle_r	knee_angle_r_beta	ankle_angle_r	subtalar_angle_r	mtp_angle_r	hip_flexion_l	hip_adduction_l	hip_rotation_l	knee_angle_l	knee_angle_l_beta	ankle_angle_l	subtalar_angle_l	mtp_angle_l	L5_S1_Flex_Ext	L5_S1_Lat_Bending	L5_S1_axial_rotation	L4_L5_Flex_Ext	L4_L5_Lat_Bending	L4_L5_axial_rotation	L3_L4_Flex_Ext	L3_L4_Lat_Bending	L3_L4_axial_rotation	L2_L3_Flex_Ext	L2_L3_Lat_Bending	L2_L3_axial_rotation	L1_L2_Flex_Ext	L1_L2_Lat_Bending	L1_L2_axial_rotation	L1_T12_Flex_Ext	L1_T12_Lat_Bending	L1_T12_axial_rotation	Abs_r3	Abs_r2	Abs_r1	Abs_t1	Abs_t2	neck_flexion	neck_bending	neck_rotation	arm_flex_r	arm_add_r	arm_rot_r	elbow_flex_r	pro_sup_r	wrist_flex_r	wrist_dev_r	arm_flex_l	arm_add_l	arm_rot_l	elbow_flex_l	pro_sup_l	wrist_flex_l	wrist_dev_l
5.033898	0.105423	-9.170322	79.403681	0.240612	0.886584	0.592301	1.693015	2.070987	18.119501	6.799320	0.118671	28.985248	-13.863869	0.000000	-2.542403	-0.991747	-0.107414	0.817967	0.014276	37.669675	7.734384	0.000000	-0.070848	0.508304	-0.271029	-0.131571	0.676044	-0.287969	-0.116395	1.235890	-0.287969	-0.080972	1.235890	-0.237151	-0.065789	1.036534	-0.220211	-0.040482	0.787363	-0.203272	-0.506057	5.750037	-1.507384	0.000000	0.000000	16.519204	-1.790622	2.323968	16.993656	-16.018109	28.152166	115.904059	75.343076	2.921795	16.940752	10.802600	-18.087987	23.977122	120.263321	85.656689	-11.983682	6.345692
5.050847	0.061309	-9.340317	79.750212	0.240334	0.886382	0.593400	1.934433	2.065767	17.667667	6.841664	0.119410	28.763530	-14.083005	0.000000	-2.215741	-1.019338	0.124021	0.812539	0.014181	37.813572	7.895599	0.000000	-0.068215	0.473523	-0.278188	-0.126681	0.629786	-0.295575	-0.112070	1.151325	-0.295575	-0.077962	1.151325	-0.243414	-0.063344	0.965609	-0.226028	-0.038978	0.733488	-0.208641	-0.487250	5.356592	-1.547197	0.000000	0.000000	16.299164	-2.285180	1.661644	16.074094	-15.846520	27.017085	115.953701	74.180875	4.218330	17.606389	10.666633	-18.424096	24.070401	120.121402	84.863240	-11.939415	6.615355
5.067797	-0.001528	-9.466760	80.152093	0.240010	0.886180	0.594392	2.116185	2.032832	17.093515	6.903509	0.120489	28.577519	-14.212113	0.000000	-1.928439	-1.020405	0.386214	0.812836	0.014187	37.969672	8.121402	0.000000	-0.068012	0.434596	-0.300783	-0.126305	0.578013	-0.319582	-0.111737	1.056677	-0.319582	-0.077731	1.056677	-0.263185	-0.063156	0.886229	-0.244386	-0.038862	0.673190	-0.225587	-0.485803	4.916240	-1.672864	0.000000	0.000000	16.134440	-2.681891	1.172035	15.121102	-15.592267	25.833535	115.961675	73.265501	5.052955	18.048874	10.532207	-18.812139	24.164611	119.910273	84.053959	-11.665420	6.762142
5.084746	-0.083448	-9.556865	80.576618	0.239688	0.885988	0.595270	2.247522	1.972299	16.461394	6.981990	0.121859	28.426717	-14.246492	0.000000	-1.679713	-0.993801	0.681186	0.816640	0.014253	38.107929	8.359072	0.000000	-0.068987	0.391045	-0.331084	-0.128116	0.520090	-0.351776	-0.113339	0.950787	-0.351776	-0.078846	0.950787	-0.289698	-0.064062	0.797419	-0.269005	-0.039419	0.605729	-0.248313	-0.492770	4.423581	-1.841387	0.000000	0.000000	16.040844	-2.931441	0.804175	14.169397	-15.258572	24.594905	115.917908	72.401207	5.448058	18.273449	10.419816	-19.213525	24.269938	119.602958	83.221675	-11.211017	6.713405
5.101695	-0.192487	-9.609242	81.013789	0.239429	0.885812	0.595978	2.322724	1.880858	15.809856	7.068963	0.123377	28.302233	-14.247496	0.000000	-1.475372	-0.934177	0.991093	0.827588	0.014444	38.220487	8.609660	0.000000	-0.071206	0.342333	-0.366288	-0.132236	0.455303	-0.389181	-0.116984	0.832348	-0.389181	-0.081381	0.832348	-0.320502	-0.066122	0.698085	-0.297609	-0.040687	0.530274	-0.274716	-0.508615	3.872538	-2.037184	0.000000	0.000000	16.030321	-3.072095	0.572321	13.199257	-14.810949	23.257371	115.823604	72.162778	5.430619	18.265847	10.323724	-19.605458	24.317938	119.272145	82.445865	-10.439381	6.778401
5.118644	-0.308906	-9.631149	81.497907	0.239143	0.885665	0.596491	2.341469	1.771902	15.028740	7.153852	0.124858	28.227193	-14.098508	0.000000	-1.307383	-0.864802	1.111253	0.851659	0.014864	38.344232	9.168411	0.000000	-0.074229	0.292288	-0.411770	-0.137851	0.388742	-0.437505	-0.121952	0.710668	-0.437505	-0.084837	0.710668	-0.360299	-0.068929	0.596033	-0.334563	-0.042415	0.452753	-0.308827	-0.530213	3.306415	-2.290140	0.000000	0.000000	16.107769	-3.135633	0.451079	12.246368	-14.293191	21.867420	115.686713	72.283783	5.003574	18.028110	10.250794	-19.950782	24.328909	118.910219	81.766436	-9.485863	6.867714
5.135593	-0.434181	-9.605286	81.980596	0.238921	0.885574	0.596830	2.294396	1.648382	14.263931	7.241706	0.126392	28.175789	-13.943893	0.000000	-1.206616	-0.777063	1.354751	0.875393	0.015278	38.408568	9.562054	0.000000	-0.081492	0.240854	-0.460507	-0.151340	0.320336	-0.489289	-0.133884	0.585613	-0.489289	-0.093138	0.585613	-0.402944	-0.075674	0.491150	-0.374162	-0.046565	0.373084	-0.345381	-0.582092	2.724594	-2.561204	0.000000	0.000000	16.270942	-3.055147	0.511046	11.342613	-13.720422	20.502763	115.514591	72.658847	4.084725	17.583136	10.214023	-20.255427	24.287290	118.519917	81.122840	-8.345003	6.943484
5.152542	-0.546818	-9.582108	82.487794	0.238636	0.885471	0.596962	2.222331	1.534314	13.480322	7.308154	0.127551	28.140767	-13.786757	0.000000	-1.122831	-0.698754	1.693555	0.900464	0.015716	38.437462	9.865592	0.000000	-0.085502	0.193351	-0.510979	-0.158785	0.257157	-0.542915	-0.140471	0.470114	-0.542915	-0.097720	0.470114	-0.447107	-0.079397	0.394282	-0.415170	-0.048856	0.299501	-0.383234	-0.610731	2.187226	-2.841912	0.000000	0.000000	16.557576	-2.942012	0.594396	10.449664	-13.156115	19.113994	115.379269	73.406188	2.948695	17.087734	10.192053	-20.459138	24.243259	118.194936	80.373127	-7.295389	7.377282
5.169492	-0.646370	-9.524161	82.960594	0.238404	0.885409	0.596919	2.097574	1.427670	12.762641	7.360116	0.128458	28.139260	-13.631120	0.000000	-1.103938	-0.624235	2.030854	0.923709	0.016122	38.440836	10.114298	0.000000	-0.092553	0.149401	-0.556944	-0.171881	0.198703	-0.591753	-0.152056	0.363253	-0.591753	-0.105779	0.363253	-0.487326	-0.085945	0.304658	-0.452517	-0.052885	0.231422	-0.417708	-0.661100	1.690051	-3.097555	0.000000	0.000000	16.938447	-2.715476	0.811081	9.616364	-12.631287	17.825869	115.268447	74.483978	1.478832	16.480240	10.191125	-20.585095	24.139040	117.894828	79.547809	-6.143874	7.975019
5.186441	-0.713562	-9.473428	83.429310	0.238095	0.885332	0.596711	1.954806	1.351821	12.107381	7.376465	0.128744	28.155435	-13.522253	0.000000	-1.104495	-0.578079	2.456205	0.946629	0.016522	38.425838	10.248883	0.000000	-0.096997	0.114690	-0.601512	-0.180134	0.152537	-0.639106	-0.159357	0.278856	-0.639106	-0.110858	0.278856	-0.526323	-0.090072	0.233875	-0.488728	-0.055424	0.177654	-0.451134	-0.692841	1.297391	-3.345427	0.000000	0.000000	17.414441	-2.579486	1.061302	8.863391	-12.203151	16.616234	115.215960	75.790348	0.102118	15.953428	10.213197	-20.618120	24.050206	117.635654	78.754881	-5.202252	8.723115
5.203390	-0.751912	-9.418486	83.847174	0.237790	0.885252	0.596358	1.789986	1.304545	11.599966	7.359895	0.128454	28.171252	-13.504868	0.000000	-1.141095	-0.554146	2.913917	0.967247	0.016882	38.394595	10.274977	0.000000	-0.100590	0.088988	-0.640476	-0.186806	0.118354	-0.680506	-0.165259	0.216366	-0.680506	-0.114964	0.216366	-0.560417	-0.093408	0.181465	-0.520387	-0.057477	0.137843	-0.480357	-0.718504	1.006651	-3.562137	0.000000	0.000000	17.940038	-2.530842	1.385319	8.231127	-11.882281	15.572722	115.203414	77.204708	-1.215071	15.484582	10.251569	-20.583166	23.950643	117.394092	77.992337	-4.379592	9.458603
5.220339	-0.765012	-9.354488	84.197233	0.237527	0.885182	0.595891	1.608021	1.283882	11.226922	7.318918	0.127739	28.176603	-13.552755	0.000000	-1.216398	-0.549202	3.390746	0.984504	0.017183	38.343323	10.183576	0.000000	-0.104531	0.072087	-0.672645	-0.194124	0.095876	-0.714685	-0.171734	0.175272	-0.714685	-0.119468	0.175272	-0.588564	-0.097067	0.147000	-0.546524	-0.059729	0.111663	-0.504484	-0.746654	0.815463	-3.741048	0.000000	0.000000	18.466669	-2.560314	1.807360	7.733521	-11.674257	14.748938	115.230601	78.803347	-2.528887	15.024987	10.302727	-20.505904	23.829393	117.186172	77.308306	-3.658664	10.193753
5.237288	-0.750376	-9.287074	84.506801	0.237266	0.885116	0.595293	1.407724	1.289582	10.961448	7.239495	0.126353	28.165651	-13.655323	0.000000	-1.319748	-0.568827	3.833771	0.998098	0.017420	38.281794	10.061804	0.000000	-0.107640	0.064440	-0.705466	-0.199898	0.085706	-0.749557	-0.176842	0.156680	-0.749557	-0.123022	0.156680	-0.617283	-0.099955	0.131407	-0.573191	-0.061506	0.099818	-0.529099	-0.768863	0.728963	-3.923589	0.000000	0.000000	18.931401	-2.709400	2.277975	7.379173	-11.566897	14.130640	115.272643	80.119802	-3.565678	14.727228	10.337219	-20.403857	23.667923	116.997396	76.758518	-2.960348	10.736870
5.254237	-0.716298	-9.216786	84.746697	0.237064	0.885063	0.594600	1.203546	1.317240	10.821540	7.141132	0.124636	28.116103	-13.833474	0.000000	-1.447734	-0.605571	4.219426	1.005087	0.017542	38.210553	9.899056	0.000000	-0.110424	0.064231	-0.732775	-0.205069	0.085427	-0.778573	-0.181416	0.156171	-0.778573	-0.126204	0.156171	-0.641178	-0.102540	0.130980	-0.595380	-0.063096	0.099494	-0.549581	-0.788750	0.726594	-4.075474	0.000000	0.000000	19.291712	-2.942740	2.770958	7.133205	-11.540695	13.720482	115.341172	81.317234	-4.447970	14.494244	10.355369	-20.307929	23.501093	116.859309	76.433820	-2.380228	11.106632
5.271186	-0.660305	-9.137772	84.944993	0.236881	0.885040	0.593835	0.992877	1.365032	10.692184	7.033692	0.122761	28.044366	-13.989557	0.000000	-1.595563	-0.662448	4.527840	1.010208	0.017631	38.149488	9.747758	0.000000	-0.114030	0.070191	-0.755821	-0.211765	0.093354	-0.803060	-0.187340	0.170663	-0.803060	-0.130325	0.170663	-0.661343	-0.105888	0.143134	-0.614104	-0.065157	0.108726	-0.566866	-0.814506	0.794015	-4.203648	0.000000	0.000000	19.519612	-3.210233	3.196097	6.937193	-11.556574	13.441341	115.435852	82.287751	-5.107300	14.363518	10.372124	-20.232685	23.353133	116.760770	76.326781	-1.838140	11.302831
5.288136	-0.593022	-9.053848	85.055015	0.236803	0.885034	0.592994	0.781342	1.427375	10.703682	6.918319	0.120747	27.920492	-14.250985	0.000000	-1.764966	-0.727219	4.826497	1.005427	0.017548	38.090225	9.470945	0.000000	-0.116632	0.080327	-0.767054	-0.216596	0.106835	-0.814995	-0.191614	0.195308	-0.814995	-0.133298	0.195308	-0.671172	-0.108304	0.163804	-0.623231	-0.066643	0.124427	-0.575291	-0.833087	0.908679	-4.266125	0.000000	0.000000	19.596271	-3.464944	3.560715	6.732529	-11.583768	13.270848	115.550886	83.007220	-5.569103	14.282209	10.368633	-20.215303	23.283407	116.732196	76.386234	-1.534482	11.352500
5.305085	-0.502672	-8.950954	85.105470	0.236753	0.885068	0.592081	0.558273	1.508016	10.728676	6.808977	0.118839	27.787651	-14.465475	0.000000	-1.964181	-0.809169	5.057145	0.994566	0.017358	38.061737	9.177764	0.000000	-0.120363	0.095383	-0.769305	-0.223526	0.126860	-0.817386	-0.197744	0.231915	-0.817386	-0.137563	0.231915	-0.673142	-0.111769	0.194506	-0.625060	-0.068775	0.147749	-0.576979	-0.859740	1.078996	-4.278643	0.000000	0.000000	19.530984	-3.705329	3.801233	6.471447	-11.598434	13.131355	115.697642	83.589896	-5.797973	14.270860	10.341705	-20.250425	23.295771	116.766981	76.424726	-1.324370	11.364211
5.322034	-0.394627	-8.835499	85.100995	0.236738	0.885121	0.591079	0.326350	1.603478	10.793678	6.697776	0.116898	27.644307	-14.700101	0.000000	-2.183205	-0.905028	5.152446	0.980300	0.017109	38.087198	8.977609	0.000000	-0.122807	0.113586	-0.764834	-0.228064	0.151070	-0.812637	-0.201759	0.276174	-0.812637	-0.140356	0.276174	-0.669230	-0.114038	0.231625	-0.621428	-0.070172	0.175945	-0.573626	-0.877195	1.284910	-4.253779	0.000000	0.000000	19.331242	-3.839912	3.934226	6.119217	-11.598418	13.010491	115.870797	84.024931	-5.842511	14.270328	10.271039	-20.351351	23.399028	116.857683	76.498933	-1.265739	11.326897
5.338983	-0.259101	-8.704543	85.015812	0.236777	0.885203	0.589993	0.088096	1.723454	10.960739	6.600317	0.115197	27.505375	-14.951808	0.000000	-2.429299	-1.020786	5.097813	0.961981	0.016790	38.179329	8.856023	0.000000	-0.124584	0.136030	-0.752335	-0.231365	0.180920	-0.799356	-0.204679	0.330744	-0.799356	-0.142387	0.330744	-0.658293	-0.115689	0.277393	-0.611272	-0.071187	0.210711	-0.564252	-0.889893	1.538800	-4.184263	0.000000	0.000000	19.015653	-3.915917	3.966058	5.690925	-11.569460	12.887268	116.040556	84.248432	-5.684669	14.285019	10.119987	-20.485294	23.556323	116.982308	76.684911	-1.403851	11.187188
